<?xml version="1.0" standalone="no"?>
<!DOCTYPE svg PUBLIC "-//W3C//DTD SVG 20010904//EN"
 "http://www.w3.org/TR/2001/REC-SVG-20010904/DTD/svg10.dtd">
<svg version="1.0" xmlns="http://www.w3.org/2000/svg"
 width="400.000000pt" height="400.000000pt" viewBox="0 0 400.000000 400.000000"
 preserveAspectRatio="xMidYMid meet">
<metadata>
Created by potrace 1.11, written by Peter Selinger 2001-2013
</metadata>
<g transform="translate(0.000000,400.000000) scale(0.100000,-0.100000)"
fill="#000000" stroke="none">
<path d="M1925 3910 c-4 -6 -9 -41 -11 -78 -9 -140 -15 -161 -51 -162 -17 0
-86 -70 -117 -118 -19 -31 -36 -44 -64 -51 -60 -17 -224 -104 -289 -154 -143
-111 -246 -258 -289 -416 -10 -34 -18 -118 -21 -216 -3 -88 -8 -163 -12 -166
-3 -3 -82 -32 -174 -63 -206 -69 -266 -97 -333 -159 -82 -74 -87 -97 -82 -395
l3 -247 28 -53 c37 -70 90 -123 157 -157 50 -26 66 -29 193 -33 l137 -5 0 -57
c0 -63 8 -74 75 -107 41 -20 101 -37 168 -48 l37 -6 0 -209 c0 -193 -1 -210
-17 -211 -76 -3 -127 -29 -160 -79 -20 -29 -23 -45 -23 -141 0 -120 7 -148 47
-185 58 -54 222 -113 356 -129 28 -3 68 -8 87 -11 61 -9 532 -12 610 -4 41 5
102 11 135 15 205 22 426 91 561 176 68 43 151 128 159 163 3 11 4 527 3 1146
-3 1063 -4 1129 -22 1190 -66 228 -232 419 -446 511 -47 20 -104 40 -128 44
-39 6 -45 11 -61 49 -26 59 -68 105 -120 129 -38 19 -46 27 -47 52 -4 78 -15
178 -20 186 -8 13 -261 11 -269 -1z"/>
</g>
</svg>
